<?xml version="1.0" encoding="utf-8" ?>
<svg baseProfile="tiny" height="70mm" version="1.2" width="581.5999999999999mm" xmlns="http://www.w3.org/2000/svg" xmlns:ev="http://www.w3.org/2001/xml-events" xmlns:xlink="http://www.w3.org/1999/xlink"><defs /><line stroke="rgb(0,0,0)" x1="0mm" x2="581.5999999999999mm" y1="0mm" y2="0mm" /><line stroke="rgb(0,0,0)" x1="0mm" x2="0mm" y1="0mm" y2="15mm" /><line stroke="rgb(0,0,0)" x1="0mm" x2="15mm" y1="15mm" y2="70mm" /><line stroke="rgb(0,0,0)" x1="15mm" x2="581.5999999999999mm" y1="70mm" y2="70mm" /><line stroke="rgb(0,0,0)" x1="581.5999999999999mm" x2="581.5999999999999mm" y1="0mm" y2="70mm" /><circle cx="40.0mm" cy="52mm" fill="none" r="1.1mm" stroke="rgb(0,0,0)" /><circle cx="40.0mm" cy="36mm" fill="none" r="1.1mm" stroke="rgb(0,0,0)" /><circle cx="40.0mm" cy="20mm" fill="none" r="1.1mm" stroke="rgb(0,0,0)" /><circle cx="52.3mm" cy="56mm" fill="none" r="1.1mm" stroke="rgb(0,0,0)" /><circle cx="52.3mm" cy="44mm" fill="none" r="1.1mm" stroke="rgb(0,0,0)" /><circle cx="52.3mm" cy="30mm" fill="none" r="1.1mm" stroke="rgb(0,0,0)" /><circle cx="64.6mm" cy="60mm" fill="none" r="1.1mm" stroke="rgb(0,0,0)" /><circle cx="64.6mm" cy="52mm" fill="none" r="1.1mm" stroke="rgb(0,0,0)" /><circle cx="64.6mm" cy="36mm" fill="none" r="1.1mm" stroke="rgb(0,0,0)" /><circle cx="76.9mm" cy="54mm" fill="none" r="1.1mm" stroke="rgb(0,0,0)" /><circle cx="76.9mm" cy="44mm" fill="none" r="1.1mm" stroke="rgb(0,0,0)" /><circle cx="76.9mm" cy="26mm" fill="none" r="1.1mm" stroke="rgb(0,0,0)" /><circle cx="85.1mm" cy="52mm" fill="none" r="1.1mm" stroke="rgb(0,0,0)" /><circle cx="85.1mm" cy="40mm" fill="none" r="1.1mm" stroke="rgb(0,0,0)" /><circle cx="85.1mm" cy="22mm" fill="none" r="1.1mm" stroke="rgb(0,0,0)" /><circle cx="93.3mm" cy="42mm" fill="none" r="1.1mm" stroke="rgb(0,0,0)" /><circle cx="93.3mm" cy="34mm" fill="none" r="1.1mm" stroke="rgb(0,0,0)" /><circle cx="93.3mm" cy="24mm" fill="none" r="1.1mm" stroke="rgb(0,0,0)" /><circle cx="97.39999999999999mm" cy="54mm" fill="none" r="1.1mm" stroke="rgb(0,0,0)" /><circle cx="97.39999999999999mm" cy="44mm" fill="none" r="1.1mm" stroke="rgb(0,0,0)" /><circle cx="97.39999999999999mm" cy="26mm" fill="none" r="1.1mm" stroke="rgb(0,0,0)" /><circle cx="105.6mm" cy="56mm" fill="none" r="1.1mm" stroke="rgb(0,0,0)" /><circle cx="105.6mm" cy="44mm" fill="none" r="1.1mm" stroke="rgb(0,0,0)" /><circle cx="105.6mm" cy="30mm" fill="none" r="1.1mm" stroke="rgb(0,0,0)" /><circle cx="111.06666666666665mm" cy="44mm" fill="none" r="1.1mm" stroke="rgb(0,0,0)" /><circle cx="111.06666666666665mm" cy="30mm" fill="none" r="1.1mm" stroke="rgb(0,0,0)" /><circle cx="111.06666666666665mm" cy="12mm" fill="none" r="1.1mm" stroke="rgb(0,0,0)" /><circle cx="116.53333333333333mm" cy="36mm" fill="none" r="1.1mm" stroke="rgb(0,0,0)" /><circle cx="116.53333333333333mm" cy="22mm" fill="none" r="1.1mm" stroke="rgb(0,0,0)" /><circle cx="116.53333333333333mm" cy="8mm" fill="none" r="1.1mm" stroke="rgb(0,0,0)" /><circle cx="122.0mm" cy="34mm" fill="none" r="1.1mm" stroke="rgb(0,0,0)" /><circle cx="122.0mm" cy="20mm" fill="none" r="1.1mm" stroke="rgb(0,0,0)" /><circle cx="122.0mm" cy="6mm" fill="none" r="1.1mm" stroke="rgb(0,0,0)" /><circle cx="130.2mm" cy="40mm" fill="none" r="1.1mm" stroke="rgb(0,0,0)" /><circle cx="130.2mm" cy="26mm" fill="none" r="1.1mm" stroke="rgb(0,0,0)" /><circle cx="130.2mm" cy="10mm" fill="none" r="1.1mm" stroke="rgb(0,0,0)" /><circle cx="134.3mm" cy="36mm" fill="none" r="1.1mm" stroke="rgb(0,0,0)" /><circle cx="134.3mm" cy="22mm" fill="none" r="1.1mm" stroke="rgb(0,0,0)" /><circle cx="134.3mm" cy="8mm" fill="none" r="1.1mm" stroke="rgb(0,0,0)" /><circle cx="142.5mm" cy="44mm" fill="none" r="1.1mm" stroke="rgb(0,0,0)" /><circle cx="142.5mm" cy="26mm" fill="none" r="1.1mm" stroke="rgb(0,0,0)" /><circle cx="142.5mm" cy="12mm" fill="none" r="1.1mm" stroke="rgb(0,0,0)" /><circle cx="150.7mm" cy="50mm" fill="none" r="1.1mm" stroke="rgb(0,0,0)" /><circle cx="150.7mm" cy="36mm" fill="none" r="1.1mm" stroke="rgb(0,0,0)" /><circle cx="150.7mm" cy="20mm" fill="none" r="1.1mm" stroke="rgb(0,0,0)" /><circle cx="154.79999999999998mm" cy="46mm" fill="none" r="1.1mm" stroke="rgb(0,0,0)" /><circle cx="154.79999999999998mm" cy="34mm" fill="none" r="1.1mm" stroke="rgb(0,0,0)" /><circle cx="154.79999999999998mm" cy="16mm" fill="none" r="1.1mm" stroke="rgb(0,0,0)" /><circle cx="158.89999999999998mm" cy="52mm" fill="none" r="1.1mm" stroke="rgb(0,0,0)" /><circle cx="158.89999999999998mm" cy="40mm" fill="none" r="1.1mm" stroke="rgb(0,0,0)" /><circle cx="158.89999999999998mm" cy="22mm" fill="none" r="1.1mm" stroke="rgb(0,0,0)" /><circle cx="171.2mm" cy="52mm" fill="none" r="1.1mm" stroke="rgb(0,0,0)" /><circle cx="171.2mm" cy="36mm" fill="none" r="1.1mm" stroke="rgb(0,0,0)" /><circle cx="171.2mm" cy="20mm" fill="none" r="1.1mm" stroke="rgb(0,0,0)" /><circle cx="183.5mm" cy="56mm" fill="none" r="1.1mm" stroke="rgb(0,0,0)" /><circle cx="183.5mm" cy="44mm" fill="none" r="1.1mm" stroke="rgb(0,0,0)" /><circle cx="183.5mm" cy="30mm" fill="none" r="1.1mm" stroke="rgb(0,0,0)" /><circle cx="195.79999999999998mm" cy="60mm" fill="none" r="1.1mm" stroke="rgb(0,0,0)" /><circle cx="195.79999999999998mm" cy="52mm" fill="none" r="1.1mm" stroke="rgb(0,0,0)" /><circle cx="195.79999999999998mm" cy="36mm" fill="none" r="1.1mm" stroke="rgb(0,0,0)" /><circle cx="208.1mm" cy="54mm" fill="none" r="1.1mm" stroke="rgb(0,0,0)" /><circle cx="208.1mm" cy="44mm" fill="none" r="1.1mm" stroke="rgb(0,0,0)" /><circle cx="208.1mm" cy="26mm" fill="none" r="1.1mm" stroke="rgb(0,0,0)" /><circle cx="216.29999999999998mm" cy="52mm" fill="none" r="1.1mm" stroke="rgb(0,0,0)" /><circle cx="216.29999999999998mm" cy="40mm" fill="none" r="1.1mm" stroke="rgb(0,0,0)" /><circle cx="216.29999999999998mm" cy="22mm" fill="none" r="1.1mm" stroke="rgb(0,0,0)" /><circle cx="224.49999999999997mm" cy="42mm" fill="none" r="1.1mm" stroke="rgb(0,0,0)" /><circle cx="224.49999999999997mm" cy="34mm" fill="none" r="1.1mm" stroke="rgb(0,0,0)" /><circle cx="224.49999999999997mm" cy="24mm" fill="none" r="1.1mm" stroke="rgb(0,0,0)" /><circle cx="228.6mm" cy="54mm" fill="none" r="1.1mm" stroke="rgb(0,0,0)" /><circle cx="228.6mm" cy="44mm" fill="none" r="1.1mm" stroke="rgb(0,0,0)" /><circle cx="228.6mm" cy="26mm" fill="none" r="1.1mm" stroke="rgb(0,0,0)" /><circle cx="236.79999999999998mm" cy="56mm" fill="none" r="1.1mm" stroke="rgb(0,0,0)" /><circle cx="236.79999999999998mm" cy="44mm" fill="none" r="1.1mm" stroke="rgb(0,0,0)" /><circle cx="236.79999999999998mm" cy="30mm" fill="none" r="1.1mm" stroke="rgb(0,0,0)" /><circle cx="242.26666666666665mm" cy="44mm" fill="none" r="1.1mm" stroke="rgb(0,0,0)" /><circle cx="242.26666666666665mm" cy="30mm" fill="none" r="1.1mm" stroke="rgb(0,0,0)" /><circle cx="242.26666666666665mm" cy="12mm" fill="none" r="1.1mm" stroke="rgb(0,0,0)" /><circle cx="247.7333333333333mm" cy="36mm" fill="none" r="1.1mm" stroke="rgb(0,0,0)" /><circle cx="247.7333333333333mm" cy="22mm" fill="none" r="1.1mm" stroke="rgb(0,0,0)" /><circle cx="247.7333333333333mm" cy="8mm" fill="none" r="1.1mm" stroke="rgb(0,0,0)" /><circle cx="253.2mm" cy="34mm" fill="none" r="1.1mm" stroke="rgb(0,0,0)" /><circle cx="253.2mm" cy="20mm" fill="none" r="1.1mm" stroke="rgb(0,0,0)" /><circle cx="253.2mm" cy="6mm" fill="none" r="1.1mm" stroke="rgb(0,0,0)" /><circle cx="261.4mm" cy="40mm" fill="none" r="1.1mm" stroke="rgb(0,0,0)" /><circle cx="261.4mm" cy="26mm" fill="none" r="1.1mm" stroke="rgb(0,0,0)" /><circle cx="261.4mm" cy="10mm" fill="none" r="1.1mm" stroke="rgb(0,0,0)" /><circle cx="265.5mm" cy="36mm" fill="none" r="1.1mm" stroke="rgb(0,0,0)" /><circle cx="265.5mm" cy="22mm" fill="none" r="1.1mm" stroke="rgb(0,0,0)" /><circle cx="265.5mm" cy="8mm" fill="none" r="1.1mm" stroke="rgb(0,0,0)" /><circle cx="273.7mm" cy="44mm" fill="none" r="1.1mm" stroke="rgb(0,0,0)" /><circle cx="273.7mm" cy="26mm" fill="none" r="1.1mm" stroke="rgb(0,0,0)" /><circle cx="273.7mm" cy="12mm" fill="none" r="1.1mm" stroke="rgb(0,0,0)" /><circle cx="281.9mm" cy="50mm" fill="none" r="1.1mm" stroke="rgb(0,0,0)" /><circle cx="281.9mm" cy="36mm" fill="none" r="1.1mm" stroke="rgb(0,0,0)" /><circle cx="281.9mm" cy="20mm" fill="none" r="1.1mm" stroke="rgb(0,0,0)" /><circle cx="286.0mm" cy="46mm" fill="none" r="1.1mm" stroke="rgb(0,0,0)" /><circle cx="286.0mm" cy="34mm" fill="none" r="1.1mm" stroke="rgb(0,0,0)" /><circle cx="286.0mm" cy="16mm" fill="none" r="1.1mm" stroke="rgb(0,0,0)" /><circle cx="290.09999999999997mm" cy="52mm" fill="none" r="1.1mm" stroke="rgb(0,0,0)" /><circle cx="290.09999999999997mm" cy="40mm" fill="none" r="1.1mm" stroke="rgb(0,0,0)" /><circle cx="290.09999999999997mm" cy="22mm" fill="none" r="1.1mm" stroke="rgb(0,0,0)" /><circle cx="302.4mm" cy="60mm" fill="none" r="1.1mm" stroke="rgb(0,0,0)" /><circle cx="310.59999999999997mm" cy="12mm" fill="none" r="1.1mm" stroke="rgb(0,0,0)" /><circle cx="310.59999999999997mm" cy="8mm" fill="none" r="1.1mm" stroke="rgb(0,0,0)" /><circle cx="314.7mm" cy="52mm" fill="none" r="1.1mm" stroke="rgb(0,0,0)" /><circle cx="314.7mm" cy="32mm" fill="none" r="1.1mm" stroke="rgb(0,0,0)" /><circle cx="314.7mm" cy="14mm" fill="none" r="1.1mm" stroke="rgb(0,0,0)" /><circle cx="318.79999999999995mm" cy="16mm" fill="none" r="1.1mm" stroke="rgb(0,0,0)" /><circle cx="318.79999999999995mm" cy="10mm" fill="none" r="1.1mm" stroke="rgb(0,0,0)" /><circle cx="322.9mm" cy="22mm" fill="none" r="1.1mm" stroke="rgb(0,0,0)" /><circle cx="322.9mm" cy="14mm" fill="none" r="1.1mm" stroke="rgb(0,0,0)" /><circle cx="327.0mm" cy="44mm" fill="none" r="1.1mm" stroke="rgb(0,0,0)" /><circle cx="331.09999999999997mm" cy="20mm" fill="none" r="1.1mm" stroke="rgb(0,0,0)" /><circle cx="331.09999999999997mm" cy="12mm" fill="none" r="1.1mm" stroke="rgb(0,0,0)" /><circle cx="335.2mm" cy="54mm" fill="none" r="1.1mm" stroke="rgb(0,0,0)" /><circle cx="339.29999999999995mm" cy="36mm" fill="none" r="1.1mm" stroke="rgb(0,0,0)" /><circle cx="339.29999999999995mm" cy="28mm" fill="none" r="1.1mm" stroke="rgb(0,0,0)" /><circle cx="343.4mm" cy="34mm" fill="none" r="1.1mm" stroke="rgb(0,0,0)" /><circle cx="343.4mm" cy="26mm" fill="none" r="1.1mm" stroke="rgb(0,0,0)" /><circle cx="347.5mm" cy="44mm" fill="none" r="1.1mm" stroke="rgb(0,0,0)" /><circle cx="347.5mm" cy="30mm" fill="none" r="1.1mm" stroke="rgb(0,0,0)" /><circle cx="347.5mm" cy="20mm" fill="none" r="1.1mm" stroke="rgb(0,0,0)" /><circle cx="351.59999999999997mm" cy="44mm" fill="none" r="1.1mm" stroke="rgb(0,0,0)" /><circle cx="355.7mm" cy="44mm" fill="none" r="1.1mm" stroke="rgb(0,0,0)" /><circle cx="355.7mm" cy="26mm" fill="none" r="1.1mm" stroke="rgb(0,0,0)" /><circle cx="359.79999999999995mm" cy="54mm" fill="none" r="1.1mm" stroke="rgb(0,0,0)" /><circle cx="359.79999999999995mm" cy="36mm" fill="none" r="1.1mm" stroke="rgb(0,0,0)" /><circle cx="359.79999999999995mm" cy="20mm" fill="none" r="1.1mm" stroke="rgb(0,0,0)" /><circle cx="363.9mm" cy="34mm" fill="none" r="1.1mm" stroke="rgb(0,0,0)" /><circle cx="363.9mm" cy="16mm" fill="none" r="1.1mm" stroke="rgb(0,0,0)" /><circle cx="368.0mm" cy="60mm" fill="none" r="1.1mm" stroke="rgb(0,0,0)" /><circle cx="376.2mm" cy="12mm" fill="none" r="1.1mm" stroke="rgb(0,0,0)" /><circle cx="376.2mm" cy="8mm" fill="none" r="1.1mm" stroke="rgb(0,0,0)" /><circle cx="380.29999999999995mm" cy="56mm" fill="none" r="1.1mm" stroke="rgb(0,0,0)" /><circle cx="380.29999999999995mm" cy="32mm" fill="none" r="1.1mm" stroke="rgb(0,0,0)" /><circle cx="380.29999999999995mm" cy="14mm" fill="none" r="1.1mm" stroke="rgb(0,0,0)" /><circle cx="384.4mm" cy="16mm" fill="none" r="1.1mm" stroke="rgb(0,0,0)" /><circle cx="384.4mm" cy="10mm" fill="none" r="1.1mm" stroke="rgb(0,0,0)" /><circle cx="388.49999999999994mm" cy="22mm" fill="none" r="1.1mm" stroke="rgb(0,0,0)" /><circle cx="388.49999999999994mm" cy="14mm" fill="none" r="1.1mm" stroke="rgb(0,0,0)" /><circle cx="392.59999999999997mm" cy="52mm" fill="none" r="1.1mm" stroke="rgb(0,0,0)" /><circle cx="396.7mm" cy="44mm" fill="none" r="1.1mm" stroke="rgb(0,0,0)" /><circle cx="396.7mm" cy="20mm" fill="none" r="1.1mm" stroke="rgb(0,0,0)" /><circle cx="396.7mm" cy="12mm" fill="none" r="1.1mm" stroke="rgb(0,0,0)" /><circle cx="404.9mm" cy="20mm" fill="none" r="1.1mm" stroke="rgb(0,0,0)" /><circle cx="404.9mm" cy="10mm" fill="none" r="1.1mm" stroke="rgb(0,0,0)" /><circle cx="404.9mm" cy="8mm" fill="none" r="1.1mm" stroke="rgb(0,0,0)" /><circle cx="413.09999999999997mm" cy="20mm" fill="none" r="1.1mm" stroke="rgb(0,0,0)" /><circle cx="413.09999999999997mm" cy="10mm" fill="none" r="1.1mm" stroke="rgb(0,0,0)" /><circle cx="413.09999999999997mm" cy="8mm" fill="none" r="1.1mm" stroke="rgb(0,0,0)" /><circle cx="417.2mm" cy="20mm" fill="none" r="1.1mm" stroke="rgb(0,0,0)" /><circle cx="417.2mm" cy="10mm" fill="none" r="1.1mm" stroke="rgb(0,0,0)" /><circle cx="417.2mm" cy="8mm" fill="none" r="1.1mm" stroke="rgb(0,0,0)" /><circle cx="425.4mm" cy="52mm" fill="none" r="1.1mm" stroke="rgb(0,0,0)" /><circle cx="433.59999999999997mm" cy="60mm" fill="none" r="1.1mm" stroke="rgb(0,0,0)" /><circle cx="441.79999999999995mm" cy="12mm" fill="none" r="1.1mm" stroke="rgb(0,0,0)" /><circle cx="441.79999999999995mm" cy="8mm" fill="none" r="1.1mm" stroke="rgb(0,0,0)" /><circle cx="445.9mm" cy="52mm" fill="none" r="1.1mm" stroke="rgb(0,0,0)" /><circle cx="445.9mm" cy="32mm" fill="none" r="1.1mm" stroke="rgb(0,0,0)" /><circle cx="445.9mm" cy="14mm" fill="none" r="1.1mm" stroke="rgb(0,0,0)" /><circle cx="449.99999999999994mm" cy="16mm" fill="none" r="1.1mm" stroke="rgb(0,0,0)" /><circle cx="449.99999999999994mm" cy="10mm" fill="none" r="1.1mm" stroke="rgb(0,0,0)" /><circle cx="454.09999999999997mm" cy="22mm" fill="none" r="1.1mm" stroke="rgb(0,0,0)" /><circle cx="454.09999999999997mm" cy="14mm" fill="none" r="1.1mm" stroke="rgb(0,0,0)" /><circle cx="458.2mm" cy="44mm" fill="none" r="1.1mm" stroke="rgb(0,0,0)" /><circle cx="462.29999999999995mm" cy="20mm" fill="none" r="1.1mm" stroke="rgb(0,0,0)" /><circle cx="462.29999999999995mm" cy="12mm" fill="none" r="1.1mm" stroke="rgb(0,0,0)" /><circle cx="466.4mm" cy="54mm" fill="none" r="1.1mm" stroke="rgb(0,0,0)" /><circle cx="470.49999999999994mm" cy="36mm" fill="none" r="1.1mm" stroke="rgb(0,0,0)" /><circle cx="470.49999999999994mm" cy="28mm" fill="none" r="1.1mm" stroke="rgb(0,0,0)" /><circle cx="474.59999999999997mm" cy="34mm" fill="none" r="1.1mm" stroke="rgb(0,0,0)" /><circle cx="474.59999999999997mm" cy="26mm" fill="none" r="1.1mm" stroke="rgb(0,0,0)" /><circle cx="478.7mm" cy="44mm" fill="none" r="1.1mm" stroke="rgb(0,0,0)" /><circle cx="478.7mm" cy="30mm" fill="none" r="1.1mm" stroke="rgb(0,0,0)" /><circle cx="478.7mm" cy="20mm" fill="none" r="1.1mm" stroke="rgb(0,0,0)" /><circle cx="482.79999999999995mm" cy="44mm" fill="none" r="1.1mm" stroke="rgb(0,0,0)" /><circle cx="486.9mm" cy="44mm" fill="none" r="1.1mm" stroke="rgb(0,0,0)" /><circle cx="486.9mm" cy="26mm" fill="none" r="1.1mm" stroke="rgb(0,0,0)" /><circle cx="490.99999999999994mm" cy="54mm" fill="none" r="1.1mm" stroke="rgb(0,0,0)" /><circle cx="490.99999999999994mm" cy="36mm" fill="none" r="1.1mm" stroke="rgb(0,0,0)" /><circle cx="490.99999999999994mm" cy="20mm" fill="none" r="1.1mm" stroke="rgb(0,0,0)" /><circle cx="495.09999999999997mm" cy="34mm" fill="none" r="1.1mm" stroke="rgb(0,0,0)" /><circle cx="495.09999999999997mm" cy="16mm" fill="none" r="1.1mm" stroke="rgb(0,0,0)" /><circle cx="499.19999999999993mm" cy="60mm" fill="none" r="1.1mm" stroke="rgb(0,0,0)" /><circle cx="507.4mm" cy="28mm" fill="none" r="1.1mm" stroke="rgb(0,0,0)" /><circle cx="507.4mm" cy="14mm" fill="none" r="1.1mm" stroke="rgb(0,0,0)" /><circle cx="519.6999999999999mm" cy="48mm" fill="none" r="1.1mm" stroke="rgb(0,0,0)" /><circle cx="519.6999999999999mm" cy="34mm" fill="none" r="1.1mm" stroke="rgb(0,0,0)" /><circle cx="519.6999999999999mm" cy="16mm" fill="none" r="1.1mm" stroke="rgb(0,0,0)" /><circle cx="532.0mm" cy="44mm" fill="none" r="1.1mm" stroke="rgb(0,0,0)" /><circle cx="532.0mm" cy="36mm" fill="none" r="1.1mm" stroke="rgb(0,0,0)" /><circle cx="532.0mm" cy="20mm" fill="none" r="1.1mm" stroke="rgb(0,0,0)" /><circle cx="544.3mm" cy="52mm" fill="none" r="1.1mm" stroke="rgb(0,0,0)" /><circle cx="548.4mm" cy="52mm" fill="none" r="1.1mm" stroke="rgb(0,0,0)" /><circle cx="556.5999999999999mm" cy="60mm" fill="none" r="1.1mm" stroke="rgb(0,0,0)" /></svg>