<?xml version="1.0" encoding="utf-8" ?>
<svg baseProfile="tiny" height="70mm" version="1.2" width="557.0mm" xmlns="http://www.w3.org/2000/svg" xmlns:ev="http://www.w3.org/2001/xml-events" xmlns:xlink="http://www.w3.org/1999/xlink"><defs /><line stroke="rgb(0,0,0)" x1="0mm" x2="557.0mm" y1="0mm" y2="0mm" /><line stroke="rgb(0,0,0)" x1="0mm" x2="0mm" y1="0mm" y2="15mm" /><line stroke="rgb(0,0,0)" x1="0mm" x2="15mm" y1="15mm" y2="70mm" /><line stroke="rgb(0,0,0)" x1="15mm" x2="557.0mm" y1="70mm" y2="70mm" /><line stroke="rgb(0,0,0)" x1="557.0mm" x2="557.0mm" y1="0mm" y2="70mm" /><circle cx="40.0mm" cy="44mm" fill="none" r="1.1mm" stroke="rgb(0,0,0)" /><circle cx="44.1mm" cy="40mm" fill="none" r="1.1mm" stroke="rgb(0,0,0)" /><circle cx="48.2mm" cy="34mm" fill="none" r="1.1mm" stroke="rgb(0,0,0)" /><circle cx="52.3mm" cy="40mm" fill="none" r="1.1mm" stroke="rgb(0,0,0)" /><circle cx="56.4mm" cy="48mm" fill="none" r="1.1mm" stroke="rgb(0,0,0)" /><circle cx="56.4mm" cy="40mm" fill="none" r="1.1mm" stroke="rgb(0,0,0)" /><circle cx="56.4mm" cy="34mm" fill="none" r="1.1mm" stroke="rgb(0,0,0)" /><circle cx="56.4mm" cy="26mm" fill="none" r="1.1mm" stroke="rgb(0,0,0)" /><circle cx="68.69999999999999mm" cy="48mm" fill="none" r="1.1mm" stroke="rgb(0,0,0)" /><circle cx="68.69999999999999mm" cy="40mm" fill="none" r="1.1mm" stroke="rgb(0,0,0)" /><circle cx="68.69999999999999mm" cy="34mm" fill="none" r="1.1mm" stroke="rgb(0,0,0)" /><circle cx="68.69999999999999mm" cy="26mm" fill="none" r="1.1mm" stroke="rgb(0,0,0)" /><circle cx="81.0mm" cy="44mm" fill="none" r="1.1mm" stroke="rgb(0,0,0)" /><circle cx="81.0mm" cy="44mm" fill="none" r="1.1mm" stroke="rgb(0,0,0)" /><circle cx="81.0mm" cy="36mm" fill="none" r="1.1mm" stroke="rgb(0,0,0)" /><circle cx="81.0mm" cy="30mm" fill="none" r="1.1mm" stroke="rgb(0,0,0)" /><circle cx="105.6mm" cy="44mm" fill="none" r="1.1mm" stroke="rgb(0,0,0)" /><circle cx="109.69999999999999mm" cy="40mm" fill="none" r="1.1mm" stroke="rgb(0,0,0)" /><circle cx="113.8mm" cy="34mm" fill="none" r="1.1mm" stroke="rgb(0,0,0)" /><circle cx="117.89999999999999mm" cy="40mm" fill="none" r="1.1mm" stroke="rgb(0,0,0)" /><circle cx="122.0mm" cy="50mm" fill="none" r="1.1mm" stroke="rgb(0,0,0)" /><circle cx="122.0mm" cy="44mm" fill="none" r="1.1mm" stroke="rgb(0,0,0)" /><circle cx="122.0mm" cy="36mm" fill="none" r="1.1mm" stroke="rgb(0,0,0)" /><circle cx="122.0mm" cy="30mm" fill="none" r="1.1mm" stroke="rgb(0,0,0)" /><circle cx="134.3mm" cy="50mm" fill="none" r="1.1mm" stroke="rgb(0,0,0)" /><circle cx="134.3mm" cy="44mm" fill="none" r="1.1mm" stroke="rgb(0,0,0)" /><circle cx="134.3mm" cy="36mm" fill="none" r="1.1mm" stroke="rgb(0,0,0)" /><circle cx="134.3mm" cy="30mm" fill="none" r="1.1mm" stroke="rgb(0,0,0)" /><circle cx="146.6mm" cy="50mm" fill="none" r="1.1mm" stroke="rgb(0,0,0)" /><circle cx="146.6mm" cy="40mm" fill="none" r="1.1mm" stroke="rgb(0,0,0)" /><circle cx="146.6mm" cy="40mm" fill="none" r="1.1mm" stroke="rgb(0,0,0)" /><circle cx="146.6mm" cy="34mm" fill="none" r="1.1mm" stroke="rgb(0,0,0)" /><circle cx="158.89999999999998mm" cy="36mm" fill="none" r="1.1mm" stroke="rgb(0,0,0)" /><circle cx="163.0mm" cy="40mm" fill="none" r="1.1mm" stroke="rgb(0,0,0)" /><circle cx="171.2mm" cy="44mm" fill="none" r="1.1mm" stroke="rgb(0,0,0)" /><circle cx="175.29999999999998mm" cy="40mm" fill="none" r="1.1mm" stroke="rgb(0,0,0)" /><circle cx="179.39999999999998mm" cy="34mm" fill="none" r="1.1mm" stroke="rgb(0,0,0)" /><circle cx="183.5mm" cy="40mm" fill="none" r="1.1mm" stroke="rgb(0,0,0)" /><circle cx="187.6mm" cy="52mm" fill="none" r="1.1mm" stroke="rgb(0,0,0)" /><circle cx="187.6mm" cy="48mm" fill="none" r="1.1mm" stroke="rgb(0,0,0)" /><circle cx="187.6mm" cy="40mm" fill="none" r="1.1mm" stroke="rgb(0,0,0)" /><circle cx="187.6mm" cy="34mm" fill="none" r="1.1mm" stroke="rgb(0,0,0)" /><circle cx="204.0mm" cy="30mm" fill="none" r="1.1mm" stroke="rgb(0,0,0)" /><circle cx="212.2mm" cy="44mm" fill="none" r="1.1mm" stroke="rgb(0,0,0)" /><circle cx="212.2mm" cy="44mm" fill="none" r="1.1mm" stroke="rgb(0,0,0)" /><circle cx="212.2mm" cy="36mm" fill="none" r="1.1mm" stroke="rgb(0,0,0)" /><circle cx="224.49999999999997mm" cy="40mm" fill="none" r="1.1mm" stroke="rgb(0,0,0)" /><circle cx="228.6mm" cy="44mm" fill="none" r="1.1mm" stroke="rgb(0,0,0)" /><circle cx="244.99999999999997mm" cy="44mm" fill="none" r="1.1mm" stroke="rgb(0,0,0)" /><circle cx="253.2mm" cy="50mm" fill="none" r="1.1mm" stroke="rgb(0,0,0)" /><circle cx="253.2mm" cy="50mm" fill="none" r="1.1mm" stroke="rgb(0,0,0)" /><circle cx="253.2mm" cy="44mm" fill="none" r="1.1mm" stroke="rgb(0,0,0)" /><circle cx="253.2mm" cy="36mm" fill="none" r="1.1mm" stroke="rgb(0,0,0)" /><circle cx="253.2mm" cy="30mm" fill="none" r="1.1mm" stroke="rgb(0,0,0)" /><circle cx="269.59999999999997mm" cy="50mm" fill="none" r="1.1mm" stroke="rgb(0,0,0)" /><circle cx="269.59999999999997mm" cy="40mm" fill="none" r="1.1mm" stroke="rgb(0,0,0)" /><circle cx="269.59999999999997mm" cy="40mm" fill="none" r="1.1mm" stroke="rgb(0,0,0)" /><circle cx="269.59999999999997mm" cy="34mm" fill="none" r="1.1mm" stroke="rgb(0,0,0)" /><circle cx="302.4mm" cy="44mm" fill="none" r="1.1mm" stroke="rgb(0,0,0)" /><circle cx="306.5mm" cy="40mm" fill="none" r="1.1mm" stroke="rgb(0,0,0)" /><circle cx="310.59999999999997mm" cy="34mm" fill="none" r="1.1mm" stroke="rgb(0,0,0)" /><circle cx="314.7mm" cy="40mm" fill="none" r="1.1mm" stroke="rgb(0,0,0)" /><circle cx="318.79999999999995mm" cy="48mm" fill="none" r="1.1mm" stroke="rgb(0,0,0)" /><circle cx="318.79999999999995mm" cy="40mm" fill="none" r="1.1mm" stroke="rgb(0,0,0)" /><circle cx="318.79999999999995mm" cy="34mm" fill="none" r="1.1mm" stroke="rgb(0,0,0)" /><circle cx="318.79999999999995mm" cy="26mm" fill="none" r="1.1mm" stroke="rgb(0,0,0)" /><circle cx="331.09999999999997mm" cy="48mm" fill="none" r="1.1mm" stroke="rgb(0,0,0)" /><circle cx="331.09999999999997mm" cy="40mm" fill="none" r="1.1mm" stroke="rgb(0,0,0)" /><circle cx="331.09999999999997mm" cy="34mm" fill="none" r="1.1mm" stroke="rgb(0,0,0)" /><circle cx="331.09999999999997mm" cy="26mm" fill="none" r="1.1mm" stroke="rgb(0,0,0)" /><circle cx="343.4mm" cy="44mm" fill="none" r="1.1mm" stroke="rgb(0,0,0)" /><circle cx="343.4mm" cy="44mm" fill="none" r="1.1mm" stroke="rgb(0,0,0)" /><circle cx="343.4mm" cy="36mm" fill="none" r="1.1mm" stroke="rgb(0,0,0)" /><circle cx="343.4mm" cy="30mm" fill="none" r="1.1mm" stroke="rgb(0,0,0)" /><circle cx="368.0mm" cy="44mm" fill="none" r="1.1mm" stroke="rgb(0,0,0)" /><circle cx="372.09999999999997mm" cy="40mm" fill="none" r="1.1mm" stroke="rgb(0,0,0)" /><circle cx="376.2mm" cy="34mm" fill="none" r="1.1mm" stroke="rgb(0,0,0)" /><circle cx="380.29999999999995mm" cy="40mm" fill="none" r="1.1mm" stroke="rgb(0,0,0)" /><circle cx="384.4mm" cy="50mm" fill="none" r="1.1mm" stroke="rgb(0,0,0)" /><circle cx="384.4mm" cy="44mm" fill="none" r="1.1mm" stroke="rgb(0,0,0)" /><circle cx="384.4mm" cy="20mm" fill="none" r="1.1mm" stroke="rgb(0,0,0)" /><circle cx="400.79999999999995mm" cy="50mm" fill="none" r="1.1mm" stroke="rgb(0,0,0)" /><circle cx="400.79999999999995mm" cy="36mm" fill="none" r="1.1mm" stroke="rgb(0,0,0)" /><circle cx="408.99999999999994mm" cy="40mm" fill="none" r="1.1mm" stroke="rgb(0,0,0)" /><circle cx="408.99999999999994mm" cy="34mm" fill="none" r="1.1mm" stroke="rgb(0,0,0)" /><circle cx="421.29999999999995mm" cy="36mm" fill="none" r="1.1mm" stroke="rgb(0,0,0)" /><circle cx="425.4mm" cy="40mm" fill="none" r="1.1mm" stroke="rgb(0,0,0)" /><circle cx="433.59999999999997mm" cy="44mm" fill="none" r="1.1mm" stroke="rgb(0,0,0)" /><circle cx="437.7mm" cy="40mm" fill="none" r="1.1mm" stroke="rgb(0,0,0)" /><circle cx="441.79999999999995mm" cy="34mm" fill="none" r="1.1mm" stroke="rgb(0,0,0)" /><circle cx="445.9mm" cy="40mm" fill="none" r="1.1mm" stroke="rgb(0,0,0)" /><circle cx="449.99999999999994mm" cy="52mm" fill="none" r="1.1mm" stroke="rgb(0,0,0)" /><circle cx="449.99999999999994mm" cy="48mm" fill="none" r="1.1mm" stroke="rgb(0,0,0)" /><circle cx="449.99999999999994mm" cy="40mm" fill="none" r="1.1mm" stroke="rgb(0,0,0)" /><circle cx="449.99999999999994mm" cy="34mm" fill="none" r="1.1mm" stroke="rgb(0,0,0)" /><circle cx="466.4mm" cy="30mm" fill="none" r="1.1mm" stroke="rgb(0,0,0)" /><circle cx="474.59999999999997mm" cy="44mm" fill="none" r="1.1mm" stroke="rgb(0,0,0)" /><circle cx="474.59999999999997mm" cy="44mm" fill="none" r="1.1mm" stroke="rgb(0,0,0)" /><circle cx="474.59999999999997mm" cy="36mm" fill="none" r="1.1mm" stroke="rgb(0,0,0)" /><circle cx="486.9mm" cy="40mm" fill="none" r="1.1mm" stroke="rgb(0,0,0)" /><circle cx="490.99999999999994mm" cy="44mm" fill="none" r="1.1mm" stroke="rgb(0,0,0)" /><circle cx="507.4mm" cy="44mm" fill="none" r="1.1mm" stroke="rgb(0,0,0)" /><circle cx="515.5999999999999mm" cy="50mm" fill="none" r="1.1mm" stroke="rgb(0,0,0)" /><circle cx="515.5999999999999mm" cy="50mm" fill="none" r="1.1mm" stroke="rgb(0,0,0)" /><circle cx="515.5999999999999mm" cy="44mm" fill="none" r="1.1mm" stroke="rgb(0,0,0)" /><circle cx="515.5999999999999mm" cy="36mm" fill="none" r="1.1mm" stroke="rgb(0,0,0)" /><circle cx="515.5999999999999mm" cy="30mm" fill="none" r="1.1mm" stroke="rgb(0,0,0)" /><circle cx="532.0mm" cy="50mm" fill="none" r="1.1mm" stroke="rgb(0,0,0)" /><circle cx="532.0mm" cy="40mm" fill="none" r="1.1mm" stroke="rgb(0,0,0)" /><circle cx="532.0mm" cy="40mm" fill="none" r="1.1mm" stroke="rgb(0,0,0)" /><circle cx="532.0mm" cy="34mm" fill="none" r="1.1mm" stroke="rgb(0,0,0)" /></svg>