<?xml version="1.0" encoding="utf-8" ?>
<svg baseProfile="tiny" height="70mm" version="1.2" width="520.0999999999999mm" xmlns="http://www.w3.org/2000/svg" xmlns:ev="http://www.w3.org/2001/xml-events" xmlns:xlink="http://www.w3.org/1999/xlink"><defs /><line stroke="rgb(0,0,0)" x1="0mm" x2="520.0999999999999mm" y1="0mm" y2="0mm" /><line stroke="rgb(0,0,0)" x1="0mm" x2="0mm" y1="0mm" y2="15mm" /><line stroke="rgb(0,0,0)" x1="0mm" x2="15mm" y1="15mm" y2="70mm" /><line stroke="rgb(0,0,0)" x1="15mm" x2="520.0999999999999mm" y1="70mm" y2="70mm" /><line stroke="rgb(0,0,0)" x1="520.0999999999999mm" x2="520.0999999999999mm" y1="0mm" y2="70mm" /><circle cx="40.0mm" cy="12mm" fill="none" r="1.1mm" stroke="rgb(0,0,0)" /><circle cx="48.2mm" cy="46mm" fill="none" r="1.1mm" stroke="rgb(0,0,0)" /><circle cx="48.2mm" cy="36mm" fill="none" r="1.1mm" stroke="rgb(0,0,0)" /><circle cx="52.3mm" cy="22mm" fill="none" r="1.1mm" stroke="rgb(0,0,0)" /><circle cx="64.6mm" cy="46mm" fill="none" r="1.1mm" stroke="rgb(0,0,0)" /><circle cx="64.6mm" cy="36mm" fill="none" r="1.1mm" stroke="rgb(0,0,0)" /><circle cx="68.69999999999999mm" cy="26mm" fill="none" r="1.1mm" stroke="rgb(0,0,0)" /><circle cx="72.8mm" cy="30mm" fill="none" r="1.1mm" stroke="rgb(0,0,0)" /><circle cx="76.9mm" cy="26mm" fill="none" r="1.1mm" stroke="rgb(0,0,0)" /><circle cx="81.0mm" cy="46mm" fill="none" r="1.1mm" stroke="rgb(0,0,0)" /><circle cx="81.0mm" cy="36mm" fill="none" r="1.1mm" stroke="rgb(0,0,0)" /><circle cx="85.1mm" cy="22mm" fill="none" r="1.1mm" stroke="rgb(0,0,0)" /><circle cx="93.3mm" cy="30mm" fill="none" r="1.1mm" stroke="rgb(0,0,0)" /><circle cx="97.39999999999999mm" cy="46mm" fill="none" r="1.1mm" stroke="rgb(0,0,0)" /><circle cx="97.39999999999999mm" cy="36mm" fill="none" r="1.1mm" stroke="rgb(0,0,0)" /><circle cx="97.39999999999999mm" cy="26mm" fill="none" r="1.1mm" stroke="rgb(0,0,0)" /><circle cx="101.5mm" cy="16mm" fill="none" r="1.1mm" stroke="rgb(0,0,0)" /><circle cx="113.8mm" cy="46mm" fill="none" r="1.1mm" stroke="rgb(0,0,0)" /><circle cx="113.8mm" cy="40mm" fill="none" r="1.1mm" stroke="rgb(0,0,0)" /><circle cx="117.89999999999999mm" cy="22mm" fill="none" r="1.1mm" stroke="rgb(0,0,0)" /><circle cx="130.2mm" cy="46mm" fill="none" r="1.1mm" stroke="rgb(0,0,0)" /><circle cx="130.2mm" cy="40mm" fill="none" r="1.1mm" stroke="rgb(0,0,0)" /><circle cx="134.3mm" cy="26mm" fill="none" r="1.1mm" stroke="rgb(0,0,0)" /><circle cx="138.39999999999998mm" cy="30mm" fill="none" r="1.1mm" stroke="rgb(0,0,0)" /><circle cx="142.5mm" cy="26mm" fill="none" r="1.1mm" stroke="rgb(0,0,0)" /><circle cx="146.6mm" cy="46mm" fill="none" r="1.1mm" stroke="rgb(0,0,0)" /><circle cx="146.6mm" cy="40mm" fill="none" r="1.1mm" stroke="rgb(0,0,0)" /><circle cx="150.7mm" cy="32mm" fill="none" r="1.1mm" stroke="rgb(0,0,0)" /><circle cx="158.89999999999998mm" cy="30mm" fill="none" r="1.1mm" stroke="rgb(0,0,0)" /><circle cx="163.0mm" cy="46mm" fill="none" r="1.1mm" stroke="rgb(0,0,0)" /><circle cx="163.0mm" cy="40mm" fill="none" r="1.1mm" stroke="rgb(0,0,0)" /><circle cx="163.0mm" cy="26mm" fill="none" r="1.1mm" stroke="rgb(0,0,0)" /><circle cx="167.1mm" cy="16mm" fill="none" r="1.1mm" stroke="rgb(0,0,0)" /><circle cx="179.39999999999998mm" cy="40mm" fill="none" r="1.1mm" stroke="rgb(0,0,0)" /><circle cx="179.39999999999998mm" cy="32mm" fill="none" r="1.1mm" stroke="rgb(0,0,0)" /><circle cx="183.5mm" cy="22mm" fill="none" r="1.1mm" stroke="rgb(0,0,0)" /><circle cx="195.79999999999998mm" cy="40mm" fill="none" r="1.1mm" stroke="rgb(0,0,0)" /><circle cx="195.79999999999998mm" cy="32mm" fill="none" r="1.1mm" stroke="rgb(0,0,0)" /><circle cx="199.89999999999998mm" cy="16mm" fill="none" r="1.1mm" stroke="rgb(0,0,0)" /><circle cx="204.0mm" cy="20mm" fill="none" r="1.1mm" stroke="rgb(0,0,0)" /><circle cx="208.1mm" cy="22mm" fill="none" r="1.1mm" stroke="rgb(0,0,0)" /><circle cx="212.2mm" cy="40mm" fill="none" r="1.1mm" stroke="rgb(0,0,0)" /><circle cx="212.2mm" cy="32mm" fill="none" r="1.1mm" stroke="rgb(0,0,0)" /><circle cx="216.29999999999998mm" cy="26mm" fill="none" r="1.1mm" stroke="rgb(0,0,0)" /><circle cx="224.49999999999997mm" cy="30mm" fill="none" r="1.1mm" stroke="rgb(0,0,0)" /><circle cx="228.6mm" cy="40mm" fill="none" r="1.1mm" stroke="rgb(0,0,0)" /><circle cx="228.6mm" cy="32mm" fill="none" r="1.1mm" stroke="rgb(0,0,0)" /><circle cx="228.6mm" cy="26mm" fill="none" r="1.1mm" stroke="rgb(0,0,0)" /><circle cx="232.7mm" cy="36mm" fill="none" r="1.1mm" stroke="rgb(0,0,0)" /><circle cx="236.79999999999998mm" cy="60mm" fill="none" r="1.1mm" stroke="rgb(0,0,0)" /><circle cx="240.89999999999998mm" cy="44mm" fill="none" r="1.1mm" stroke="rgb(0,0,0)" /><circle cx="244.99999999999997mm" cy="36mm" fill="none" r="1.1mm" stroke="rgb(0,0,0)" /><circle cx="249.1mm" cy="22mm" fill="none" r="1.1mm" stroke="rgb(0,0,0)" /><circle cx="253.2mm" cy="46mm" fill="none" r="1.1mm" stroke="rgb(0,0,0)" /><circle cx="253.2mm" cy="44mm" fill="none" r="1.1mm" stroke="rgb(0,0,0)" /><circle cx="257.29999999999995mm" cy="44mm" fill="none" r="1.1mm" stroke="rgb(0,0,0)" /><circle cx="261.4mm" cy="40mm" fill="none" r="1.1mm" stroke="rgb(0,0,0)" /><circle cx="265.5mm" cy="16mm" fill="none" r="1.1mm" stroke="rgb(0,0,0)" /><circle cx="269.59999999999997mm" cy="58mm" fill="none" r="1.1mm" stroke="rgb(0,0,0)" /><circle cx="269.59999999999997mm" cy="20mm" fill="none" r="1.1mm" stroke="rgb(0,0,0)" /><circle cx="273.7mm" cy="22mm" fill="none" r="1.1mm" stroke="rgb(0,0,0)" /><circle cx="277.79999999999995mm" cy="40mm" fill="none" r="1.1mm" stroke="rgb(0,0,0)" /><circle cx="277.79999999999995mm" cy="32mm" fill="none" r="1.1mm" stroke="rgb(0,0,0)" /><circle cx="281.9mm" cy="40mm" fill="none" r="1.1mm" stroke="rgb(0,0,0)" /><circle cx="281.9mm" cy="26mm" fill="none" r="1.1mm" stroke="rgb(0,0,0)" /><circle cx="290.09999999999997mm" cy="30mm" fill="none" r="1.1mm" stroke="rgb(0,0,0)" /><circle cx="294.2mm" cy="36mm" fill="none" r="1.1mm" stroke="rgb(0,0,0)" /><circle cx="294.2mm" cy="26mm" fill="none" r="1.1mm" stroke="rgb(0,0,0)" /><circle cx="298.29999999999995mm" cy="12mm" fill="none" r="1.1mm" stroke="rgb(0,0,0)" /><circle cx="302.4mm" cy="60mm" fill="none" r="1.1mm" stroke="rgb(0,0,0)" /><circle cx="310.59999999999997mm" cy="60mm" fill="none" r="1.1mm" stroke="rgb(0,0,0)" /><circle cx="310.59999999999997mm" cy="46mm" fill="none" r="1.1mm" stroke="rgb(0,0,0)" /><circle cx="310.59999999999997mm" cy="36mm" fill="none" r="1.1mm" stroke="rgb(0,0,0)" /><circle cx="314.7mm" cy="22mm" fill="none" r="1.1mm" stroke="rgb(0,0,0)" /><circle cx="318.79999999999995mm" cy="44mm" fill="none" r="1.1mm" stroke="rgb(0,0,0)" /><circle cx="322.9mm" cy="60mm" fill="none" r="1.1mm" stroke="rgb(0,0,0)" /><circle cx="327.0mm" cy="46mm" fill="none" r="1.1mm" stroke="rgb(0,0,0)" /><circle cx="327.0mm" cy="36mm" fill="none" r="1.1mm" stroke="rgb(0,0,0)" /><circle cx="331.09999999999997mm" cy="60mm" fill="none" r="1.1mm" stroke="rgb(0,0,0)" /><circle cx="331.09999999999997mm" cy="26mm" fill="none" r="1.1mm" stroke="rgb(0,0,0)" /><circle cx="335.2mm" cy="44mm" fill="none" r="1.1mm" stroke="rgb(0,0,0)" /><circle cx="335.2mm" cy="30mm" fill="none" r="1.1mm" stroke="rgb(0,0,0)" /><circle cx="339.29999999999995mm" cy="60mm" fill="none" r="1.1mm" stroke="rgb(0,0,0)" /><circle cx="339.29999999999995mm" cy="26mm" fill="none" r="1.1mm" stroke="rgb(0,0,0)" /><circle cx="343.4mm" cy="46mm" fill="none" r="1.1mm" stroke="rgb(0,0,0)" /><circle cx="343.4mm" cy="36mm" fill="none" r="1.1mm" stroke="rgb(0,0,0)" /><circle cx="347.5mm" cy="44mm" fill="none" r="1.1mm" stroke="rgb(0,0,0)" /><circle cx="347.5mm" cy="22mm" fill="none" r="1.1mm" stroke="rgb(0,0,0)" /><circle cx="355.7mm" cy="52mm" fill="none" r="1.1mm" stroke="rgb(0,0,0)" /><circle cx="355.7mm" cy="30mm" fill="none" r="1.1mm" stroke="rgb(0,0,0)" /><circle cx="359.79999999999995mm" cy="50mm" fill="none" r="1.1mm" stroke="rgb(0,0,0)" /><circle cx="359.79999999999995mm" cy="46mm" fill="none" r="1.1mm" stroke="rgb(0,0,0)" /><circle cx="359.79999999999995mm" cy="36mm" fill="none" r="1.1mm" stroke="rgb(0,0,0)" /><circle cx="359.79999999999995mm" cy="26mm" fill="none" r="1.1mm" stroke="rgb(0,0,0)" /><circle cx="363.9mm" cy="40mm" fill="none" r="1.1mm" stroke="rgb(0,0,0)" /><circle cx="363.9mm" cy="16mm" fill="none" r="1.1mm" stroke="rgb(0,0,0)" /><circle cx="372.09999999999997mm" cy="40mm" fill="none" r="1.1mm" stroke="rgb(0,0,0)" /><circle cx="376.2mm" cy="58mm" fill="none" r="1.1mm" stroke="rgb(0,0,0)" /><circle cx="376.2mm" cy="46mm" fill="none" r="1.1mm" stroke="rgb(0,0,0)" /><circle cx="376.2mm" cy="40mm" fill="none" r="1.1mm" stroke="rgb(0,0,0)" /><circle cx="380.29999999999995mm" cy="22mm" fill="none" r="1.1mm" stroke="rgb(0,0,0)" /><circle cx="384.4mm" cy="40mm" fill="none" r="1.1mm" stroke="rgb(0,0,0)" /><circle cx="388.49999999999994mm" cy="58mm" fill="none" r="1.1mm" stroke="rgb(0,0,0)" /><circle cx="392.59999999999997mm" cy="46mm" fill="none" r="1.1mm" stroke="rgb(0,0,0)" /><circle cx="392.59999999999997mm" cy="40mm" fill="none" r="1.1mm" stroke="rgb(0,0,0)" /><circle cx="396.7mm" cy="16mm" fill="none" r="1.1mm" stroke="rgb(0,0,0)" /><circle cx="400.79999999999995mm" cy="52mm" fill="none" r="1.1mm" stroke="rgb(0,0,0)" /><circle cx="400.79999999999995mm" cy="20mm" fill="none" r="1.1mm" stroke="rgb(0,0,0)" /><circle cx="404.9mm" cy="58mm" fill="none" r="1.1mm" stroke="rgb(0,0,0)" /><circle cx="404.9mm" cy="22mm" fill="none" r="1.1mm" stroke="rgb(0,0,0)" /><circle cx="408.99999999999994mm" cy="46mm" fill="none" r="1.1mm" stroke="rgb(0,0,0)" /><circle cx="408.99999999999994mm" cy="40mm" fill="none" r="1.1mm" stroke="rgb(0,0,0)" /><circle cx="413.09999999999997mm" cy="40mm" fill="none" r="1.1mm" stroke="rgb(0,0,0)" /><circle cx="413.09999999999997mm" cy="26mm" fill="none" r="1.1mm" stroke="rgb(0,0,0)" /><circle cx="421.29999999999995mm" cy="52mm" fill="none" r="1.1mm" stroke="rgb(0,0,0)" /><circle cx="421.29999999999995mm" cy="30mm" fill="none" r="1.1mm" stroke="rgb(0,0,0)" /><circle cx="425.4mm" cy="50mm" fill="none" r="1.1mm" stroke="rgb(0,0,0)" /><circle cx="425.4mm" cy="46mm" fill="none" r="1.1mm" stroke="rgb(0,0,0)" /><circle cx="425.4mm" cy="40mm" fill="none" r="1.1mm" stroke="rgb(0,0,0)" /><circle cx="425.4mm" cy="26mm" fill="none" r="1.1mm" stroke="rgb(0,0,0)" /><circle cx="429.49999999999994mm" cy="52mm" fill="none" r="1.1mm" stroke="rgb(0,0,0)" /><circle cx="429.49999999999994mm" cy="16mm" fill="none" r="1.1mm" stroke="rgb(0,0,0)" /><circle cx="433.59999999999997mm" cy="56mm" fill="none" r="1.1mm" stroke="rgb(0,0,0)" /><circle cx="441.79999999999995mm" cy="56mm" fill="none" r="1.1mm" stroke="rgb(0,0,0)" /><circle cx="441.79999999999995mm" cy="40mm" fill="none" r="1.1mm" stroke="rgb(0,0,0)" /><circle cx="441.79999999999995mm" cy="32mm" fill="none" r="1.1mm" stroke="rgb(0,0,0)" /><circle cx="445.9mm" cy="22mm" fill="none" r="1.1mm" stroke="rgb(0,0,0)" /><circle cx="449.99999999999994mm" cy="36mm" fill="none" r="1.1mm" stroke="rgb(0,0,0)" /><circle cx="454.09999999999997mm" cy="56mm" fill="none" r="1.1mm" stroke="rgb(0,0,0)" /><circle cx="458.2mm" cy="40mm" fill="none" r="1.1mm" stroke="rgb(0,0,0)" /><circle cx="458.2mm" cy="32mm" fill="none" r="1.1mm" stroke="rgb(0,0,0)" /><circle cx="458.2mm" cy="26mm" fill="none" r="1.1mm" stroke="rgb(0,0,0)" /><circle cx="462.29999999999995mm" cy="56mm" fill="none" r="1.1mm" stroke="rgb(0,0,0)" /><circle cx="462.29999999999995mm" cy="12mm" fill="none" r="1.1mm" stroke="rgb(0,0,0)" /><circle cx="466.4mm" cy="36mm" fill="none" r="1.1mm" stroke="rgb(0,0,0)" /><circle cx="470.49999999999994mm" cy="56mm" fill="none" r="1.1mm" stroke="rgb(0,0,0)" /><circle cx="470.49999999999994mm" cy="22mm" fill="none" r="1.1mm" stroke="rgb(0,0,0)" /><circle cx="474.59999999999997mm" cy="46mm" fill="none" r="1.1mm" stroke="rgb(0,0,0)" /><circle cx="474.59999999999997mm" cy="40mm" fill="none" r="1.1mm" stroke="rgb(0,0,0)" /><circle cx="478.7mm" cy="26mm" fill="none" r="1.1mm" stroke="rgb(0,0,0)" /><circle cx="486.9mm" cy="30mm" fill="none" r="1.1mm" stroke="rgb(0,0,0)" /><circle cx="490.99999999999994mm" cy="46mm" fill="none" r="1.1mm" stroke="rgb(0,0,0)" /><circle cx="490.99999999999994mm" cy="40mm" fill="none" r="1.1mm" stroke="rgb(0,0,0)" /><circle cx="490.99999999999994mm" cy="32mm" fill="none" r="1.1mm" stroke="rgb(0,0,0)" /><circle cx="495.09999999999997mm" cy="36mm" fill="none" r="1.1mm" stroke="rgb(0,0,0)" /></svg>